<svg id="Layer_1" data-name="Layer 1" xmlns="http://www.w3.org/2000/svg" viewBox="0 0 400 130"><title>Artboard 1</title><path d="M86.5,63.9c0-22.4-12.6-31.6-33-31.6-6.4,0-12.6,0-15.8.2s-5.2.6-5.2,3.8V97.5a177.7,177.7,0,0,0,18.2,1c20.8,0,35.8-12.2,35.8-34.6Zm-13.4,1c0,14.4-8.8,23-21.2,23a42.74,42.74,0,0,1-6.8-.5V43s3.6-.3,7.6-.3c14.4,0,20.4,7.8,20.4,22.2Zm20.2,9c0,16.4,8,24.6,24.4,24.6a43.47,43.47,0,0,0,15.2-2.6V86.5a43.59,43.59,0,0,1-13.6,2.4c-8.8,0-13.6-4.6-13.6-13.4h24.6c4,0,5.6-1,5.6-3.8V69.9c0-12-6.4-21.4-20-21.4-14.4,0-22.6,11-22.6,25.4Zm22.2-16.2c5.2,0,8,3.6,8,9.6H105.9c.8-6,4.4-9.6,9.6-9.6Zm42-25.2h-6.8c-4,0-5.6,1-5.6,3.8V82.7c0,11.2,3.4,15.8,12.6,15.8a28.39,28.39,0,0,0,8.2-1.3V88.1a18.68,18.68,0,0,1-4.2.6c-2.5,0-4.2-1.2-4.2-6.4Zm28.4,0h-6.6c-4,0-5.6,1-5.6,3.8V82.7c0,11.2,3.6,15.8,14,15.8a36.59,36.59,0,0,0,9.8-1.3V87.7a26.19,26.19,0,0,1-5.8.8c-3.6,0-5.8-1.8-5.8-7.8V59.1h6c4,0,5.6-1,5.6-3.8V49.5H185.9Zm17.6,43.4c0,16.4,10.4,22.6,23.2,22.6,8,0,16.2-1.6,21-3.6V51.1a62.22,62.22,0,0,0-17.2-2.6c-16.8,0-27,11-27,27.4Zm12.8-1.2c0-11.6,5.8-16.6,13-16.6a26.3,26.3,0,0,1,6.2.7V87.7s-2.6,1.2-7.8,1.2c-8,0-11.4-5.4-11.4-14.2Zm44,22.8h12.4V68.3c0-6.8,1.8-9.2,6.6-9.2h.6c3.6,0,5.4-.6,5.4-3.8V49.5h-7.6c-13.6,0-17.4,8.4-17.4,18.8Zm27.8-23.6c0,16.4,8,24.6,24.4,24.6a43.47,43.47,0,0,0,15.2-2.6V86.5a43.59,43.59,0,0,1-13.6,2.4c-8.8,0-13.6-4.6-13.6-13.4h24.6c4,0,5.6-1,5.6-3.8V69.9c0-12-6.4-21.4-20-21.4-14.4,0-22.6,11-22.6,25.4Zm22.2-16.2c5.2,0,8,3.6,8,9.6H300.7c.8-6,4.4-9.6,9.6-9.6Zm28,6.2c0,16,19.5,11.6,19.5,20,0,3.2-3.1,5-7.9,5a40.07,40.07,0,0,1-10.3-1.4l-.2,10a48.7,48.7,0,0,0,9.9,1c12.8,0,21.3-6.2,21.3-15.8,0-15.6-19.7-12.4-19.7-20,0-3.2,2.8-4.8,7.2-4.8,1.6,0,3.2.1,4.4.1,2.8,0,5-.5,5-5.3V49.3a56.4,56.4,0,0,0-8.8-.8C345.1,48.5,338.3,55.5,338.3,63.9Z" style="fill:#0a28a3"/><rect width="400" height="130" style="fill:none"/></svg>
